<?xml version="1.0" encoding="utf-8"?>
<!-- Generator: Adobe Illustrator 23.0.1, SVG Export Plug-In . SVG Version: 6.00 Build 0)  -->
<svg version="1.1" id="图层_1" xmlns="http://www.w3.org/2000/svg" xmlns:xlink="http://www.w3.org/1999/xlink" x="0px" y="0px"
	 viewBox="0 0 40 32" style="enable-background:new 0 0 40 32;" xml:space="preserve">
<style type="text/css">
	.st0{opacity:0.302;fill-rule:evenodd;clip-rule:evenodd;fill:#4A90E2;}
	.st1{fill:#4A90E2;}
</style>
<title>高企评测</title>
<desc>Created with Sketch.</desc>
<g id="Page-1">
	<g id="首页-第二版" transform="translate(-610.000000, -841.000000)">
		<g id="Group-9-Copy" transform="translate(527.000000, 813.000000)">
			<g id="高企评测" transform="translate(80.000000, 22.000000)">
				<rect id="矩形" x="4" y="6" class="st0" width="26" height="30"/>
				<g id="huijihesuan" transform="translate(3.000000, 6.000000)">
					<path id="形状" class="st1" d="M38,11.4c-1.2-1.3-3-2-4.8-2c-0.2,0-0.4,0-0.5,0V1.6C32.8,0.7,32,0,31.2,0H1.6
						C0.7,0,0,0.7,0,1.6v28.9C0,31.3,0.7,32,1.6,32h29.6c0.8,0,1.6-0.7,1.6-1.6v-7.9c0.2,0,0.3,0,0.5,0c1.9,0,3.6-0.7,4.8-1.9
						c1.2-1.2,2-2.8,2-4.7S39.3,12.6,38,11.4z M17.1,1.9h13.1v8.1c-0.7,0.4-1.2,0.7-1.8,1.3c-0.9,0.9-1.6,2-1.9,3.4h-9.5V1.9z
						 M15.6,29H2.5V16.2h13.1V29z M15.6,14.7H2.5V1.9h13.1V14.7z M30.3,29H17.1V16.2h9.4c0.1,1.7,0.8,3.3,2,4.5
						c0.5,0.5,1.1,0.9,1.8,1.2V29z M33.3,20.7c-2.6,0-4.8-2.1-4.8-4.7s2.2-4.7,4.8-4.7S38,13.4,38,16S35.9,20.7,33.3,20.7z
						 M35.5,14.1c0.2-0.2,0.6-0.2,0.8,0c0.2,0.2,0.2,0.5,0,0.8l-3.7,3.6c-0.2,0.3-0.6,0.3-0.8,0l-1.7-1.6c-0.2-0.2-0.2-0.5,0-0.8
						c0.3-0.2,0.6-0.2,0.8,0l1.2,1.3L35.5,14.1z M10.4,20c0.3-0.3,0.7-0.3,1,0c0.3,0.3,0.3,0.7,0,1l-1.7,1.7l1.8,1.7
						c0.3,0.3,0.3,0.7,0,1s-0.7,0.3-1,0l-1.8-1.7l-1.8,1.7c-0.3,0.3-0.7,0.3-1,0c-0.3-0.3-0.3-0.7,0-1l1.8-1.7L5.9,21
						c-0.3-0.3-0.3-0.7,0-1c0.3-0.3,0.7-0.3,1,0l1.8,1.7L10.4,20z M7.9,4.8c0-0.4,0.4-0.7,0.7-0.7s0.7,0.4,0.7,0.7v2.5h2.5
						c0.4,0,0.7,0.3,0.7,0.7c0,0.4-0.4,0.7-0.7,0.7H9.4v2.5C9.4,11.7,9,12,8.6,12c-0.5,0-0.7-0.4-0.7-0.7V8.8H5.3
						C4.9,8.8,4.6,8.4,4.6,8c0-0.5,0.4-0.7,0.7-0.7h2.5V4.8z M27.1,23.5c0.4,0,0.7,0.4,0.7,0.7c0,0.4-0.4,0.7-0.7,0.7
						c-5.5,0-1,0-6.6,0c-0.4,0-0.7-0.4-0.7-0.7c0-0.4,0.3-0.7,0.7-0.7C25.9,23.5,21.5,23.5,27.1,23.5z M27.1,20.6
						c0.4,0,0.7,0.4,0.7,0.7c0,0.4-0.4,0.7-0.7,0.7c-5.5,0-1,0-6.6,0c-0.4,0-0.7-0.4-0.7-0.7c0-0.5,0.3-0.7,0.7-0.7
						C25.9,20.6,21.5,20.6,27.1,20.6z M27.1,7.3c0.4,0,0.7,0.3,0.7,0.7c0,0.4-0.4,0.7-0.7,0.7c-5.5,0-1,0-6.6,0
						c-0.4,0-0.7-0.4-0.7-0.7c0-0.5,0.3-0.7,0.7-0.7C25.9,7.3,21.5,7.3,27.1,7.3z"/>
				</g>
			</g>
		</g>
	</g>
</g>
</svg>
