<?xml version="1.0" encoding="utf-8"?>
<!-- Generator: Adobe Illustrator 23.0.1, SVG Export Plug-In . SVG Version: 6.00 Build 0)  -->
<svg version="1.1" id="图层_1" xmlns="http://www.w3.org/2000/svg" xmlns:xlink="http://www.w3.org/1999/xlink" x="0px" y="0px"
	 viewBox="0 0 44 44" style="enable-background:new 0 0 44 44;" xml:space="preserve">
<style type="text/css">
	.st0{fill-rule:evenodd;clip-rule:evenodd;fill:#FFFFFF;}
	.st1{fill:#FFFFFF;}
</style>
<title>111-1</title>
<desc>Created with Sketch.</desc>
<g id="高企评测" transform="translate(3.000000, 5.000000)">
	<g id="qiye">
		<polygon id="Path" class="st0" points="4,1 22,1 22,32 4,32 		"/>
		<path id="Shape" class="st1" d="M15,8h5v2h-5V8z M15,16h5v2h-5V16z M15,24h5v2h-5V24z M27.1,21.9H29V28h-1.9V21.9z M27.1,13.7H29
			v6.1h-1.9V13.7z"/>
		<path class="st1" d="M34.4,32V6.7h-9.2V0H3.8v32H0v2h37v-2H34.4z M32.4,8.6V32h-7.2V8.6H32.4z M23.4,2v30H5.8V2H23.4z"/>
		<polygon class="st1" points="7,8 12,8 12,10 7,10 		"/>
		<polygon id="Shape-Copy" class="st1" points="7,16 12,16 12,18 7,18 		"/>
		<polygon id="Shape-Copy-2" class="st1" points="7,24 12,24 12,26 7,26 		"/>
	</g>
</g>
</svg>
