<?xml version="1.0" encoding="utf-8"?>
<!-- Generator: Adobe Illustrator 23.0.1, SVG Export Plug-In . SVG Version: 6.00 Build 0)  -->
<svg version="1.1" id="图层_1" xmlns="http://www.w3.org/2000/svg" xmlns:xlink="http://www.w3.org/1999/xlink" x="0px" y="0px"
	 viewBox="0 0 37 32" style="enable-background:new 0 0 37 32;" xml:space="preserve">
<style type="text/css">
	.st0{opacity:0.302;fill-rule:evenodd;clip-rule:evenodd;fill:#4A90E2;}
	.st1{fill:#4A90E2;}
</style>
<title>高企评测</title>
<desc>Created with Sketch.</desc>
<g id="Page-1">
	<g id="首页-第二版" transform="translate(-996.000000, -841.000000)">
		<g transform="translate(992.000000, 834.000000)">
			<ellipse id="椭圆形" class="st0" cx="23" cy="13.5" rx="8" ry="6.5"/>
			<ellipse id="椭圆形-copy" class="st0" cx="12" cy="22.5" rx="8" ry="6.5"/>
			<ellipse id="椭圆形-copy-2" class="st0" cx="32" cy="28.5" rx="8" ry="6.5"/>
			<g id="qian" transform="translate(4.223957, 7.271291)">
				<path id="形状" class="st1" d="M36.1,19.3c0-2.9-3.9-5.2-8.8-5.2c-0.3,0-0.7,0-1,0V5.7c0-0.2,0-0.4,0-0.7
					c0-2.9-3.7-5.1-8.5-5.1c-4.8,0-8.6,2.2-8.6,5.1c0,0.2,0,0.4,0.1,0.7v2.3C9.1,8,8.8,8,8.6,8C3.7,8,0,10.3,0,13.1
					c0,0.2,0,0.4,0,0.7v11.8h0.1c0.2,2.7,3.8,4.8,8.5,4.8c4.7,0,8.5-2.1,8.7-4.8h0.1v-0.5c0.3,0,0.3,0,0.6,0c0.3,0,0.6,0,0.9,0v0.1
					h0.1l0,0.3c0,2.8,3.8,5.2,8.6,5.2c4.8,0,8.6-2.2,8.6-5l0-0.3h0.1V20C36.2,19.8,36.1,19.5,36.1,19.3z M27.5,15.8
					c4.2,0,7.2,1.9,7.2,3.5c0,1.7-3,3.5-7.2,3.5c-4.2,0-7.2-1.9-7.2-3.5C20.3,17.6,23.3,15.8,27.5,15.8z M34.8,22.2v0.9
					c-0.4,1.8-3.6,3.3-7.3,3.3c-3.6,0-6.9-1.5-7.3-3.3v-0.9c1.6,1.4,4.2,2.3,7.3,2.3C30.6,24.5,33.2,23.6,34.8,22.2z M17.9,15
					c-0.3,0-0.3,0-0.6,0v-1.2c0-0.1,0-0.3,0.1-0.4c0.3,0,0.3,0,0.5,0c3.1,0,5.6-0.9,7.1-2.3v0.7C24.6,13.5,21.5,15,17.9,15z
					 M25.1,14.3c-0.1,0-0.3,0-0.4,0.1c0.1-0.1,0.3-0.2,0.4-0.3V14.3z M17.9,1.6c4.2,0,7,1.8,7,3.5c0,1.6-2.8,3.5-7,3.5
					c-4.2,0-7.1-1.8-7.1-3.5C10.8,3.4,13.7,1.6,17.9,1.6z M10.7,7.9C10.9,8,11,8.2,11.2,8.3c-0.1,0-0.3,0-0.4-0.1V7.9z M8.6,9.6
					c4.2,0,7.2,1.8,7.2,3.5c0,1.6-3,3.5-7.2,3.5c-4.2,0-7.1-1.8-7.1-3.5C1.5,11.5,4.4,9.6,8.6,9.6z M1.4,16c1.5,1.4,4.1,2.2,7.2,2.2
					s5.8-0.9,7.3-2.2v0.9c-0.4,1.8-3.7,3.2-7.3,3.2c-3.6,0-6.8-1.5-7.2-3.2V16z M1.4,19.1c1.5,1.4,4.1,2.3,7.2,2.3
					c3.1,0,5.8-0.9,7.3-2.3v0.7c-0.4,1.8-3.7,3.2-7.3,3.2c-3.6,0-6.8-1.5-7.2-3.2L1.4,19.1z M1.4,22.1c1.5,1.4,4.1,2.3,7.2,2.3
					c3.1,0,5.8-0.9,7.3-2.3v0.7c-0.4,1.8-3.7,3.2-7.3,3.2c-3.6,0-6.8-1.5-7.2-3.2V22.1z M8.6,29c-3.7,0-7-1.6-7.2-3.4h0v-0.5
					c1.5,1.4,4.1,2.3,7.2,2.3c3.1,0,5.8-0.9,7.3-2.3v0.5h0C15.7,27.4,12.3,29,8.6,29z M17.2,12c-0.3-0.8-1.1-1.5-1.9-2.1
					c0.8,0.1,1.7,0.2,2.6,0.2c3,0,5.5-0.9,7.1-2.2v0.9c-0.4,1.8-3.5,3.2-7.1,3.2C17.6,12,17.5,12,17.2,12z M18.9,23.7
					c-0.3,0-0.6,0-0.9,0c-0.3,0-0.3,0-0.6,0v-1.4c0.3,0,0.3,0,0.6,0c0.3,0,0.6,0,0.9,0V23.7z M18.9,21c-0.3,0-0.6,0-0.9,0
					c-0.3,0-0.3,0-0.6,0v-1.6c0.3,0,0.3,0,0.6,0c0.3,0,0.6,0,0.9,0c0,0.2,0,0.4,0.1,0.6L18.9,21z M19.1,18c-0.4,0-0.8,0.1-1.2,0.1
					c-0.3,0-0.3,0-0.6,0v-1.6c0.3,0,0.3,0,0.6,0c0.9,0,1.8-0.1,2.6-0.2C19.9,16.7,19.3,17.3,19.1,18z M27.5,29.4
					c-3.9,0-7.3-1.7-7.3-3.6l0-0.4h0c1.5,1.4,4.2,2.3,7.3,2.3c3.1,0,5.8-0.9,7.3-2.3h0l0,0.3C34.8,27.7,31.4,29.4,27.5,29.4z
					 M7.9,14.2c-0.1-0.1-0.1-0.2-0.1-0.4h-1c0,0.5,0.2,0.8,0.6,1C7.6,14.9,8,15,8.4,15v0.5h0.4V15c0.4,0,0.7-0.1,1-0.2
					c0.5-0.2,0.7-0.5,0.7-1c0-0.3-0.2-0.6-0.5-0.8c-0.2-0.1-0.6-0.2-1.2-0.4v-1c0.2,0,0.4,0.1,0.5,0.2c0.1,0.1,0.1,0.2,0.1,0.3h1
					c0-0.4-0.2-0.7-0.7-0.9c-0.2-0.1-0.6-0.2-1-0.2v-0.4H8.4v0.4c-0.3,0-0.5,0-0.6,0.1c-0.2,0-0.4,0.1-0.6,0.3
					c-0.1,0.1-0.2,0.2-0.3,0.3c-0.1,0.1-0.1,0.3-0.1,0.4c0,0.2,0.1,0.5,0.3,0.6c0.2,0.2,0.5,0.3,1,0.4l0.3,0.1v1.1
					C8.2,14.4,8,14.3,7.9,14.2z M8.8,13.4c0.2,0.1,0.4,0.1,0.4,0.2c0.1,0.1,0.2,0.2,0.2,0.4c0,0.2-0.1,0.3-0.2,0.4
					c-0.1,0-0.2,0.1-0.4,0.1V13.4z M8,12.4c-0.2-0.1-0.2-0.2-0.2-0.4c0-0.1,0.1-0.2,0.2-0.3c0.1-0.1,0.3-0.1,0.5-0.1v0.9
					C8.3,12.5,8.1,12.5,8,12.4z M26.7,20.1c-0.1-0.1-0.1-0.2-0.1-0.4l-1,0c0,0.5,0.2,0.8,0.6,1c0.2,0.1,0.6,0.2,1.1,0.2v0.5h0.4
					v-0.5c0.4,0,0.7-0.1,1-0.2c0.5-0.2,0.7-0.5,0.7-1c0-0.3-0.2-0.6-0.5-0.8c-0.2-0.1-0.6-0.2-1.2-0.4v-1c0.2,0,0.4,0.1,0.5,0.2
					c0.1,0.1,0.1,0.2,0.1,0.3h1c0-0.4-0.2-0.7-0.7-0.9c-0.2-0.1-0.6-0.2-1-0.2v-0.4h-0.4V17c-0.3,0-0.5,0-0.6,0.1
					c-0.2,0-0.4,0.1-0.6,0.3c-0.1,0.1-0.2,0.2-0.3,0.3c-0.1,0.1-0.1,0.3-0.1,0.4c0,0.2,0.1,0.5,0.3,0.6c0.2,0.2,0.5,0.3,1,0.4
					l0.3,0.1v1.1C27,20.3,26.8,20.2,26.7,20.1z M27.7,19.3c0.2,0.1,0.4,0.1,0.4,0.2c0.1,0.1,0.2,0.2,0.2,0.4c0,0.2-0.1,0.3-0.2,0.4
					c-0.1,0-0.2,0.1-0.4,0.1L27.7,19.3z M26.9,18.4c-0.2-0.1-0.2-0.2-0.2-0.4c0-0.1,0.1-0.2,0.2-0.3c0.1-0.1,0.3-0.1,0.5-0.1v0.9
					C27.1,18.4,27,18.4,26.9,18.4z M17.2,6.2C17.1,6.2,17.1,6,17,5.8h-1c0,0.5,0.2,0.8,0.6,1C16.9,6.9,17.2,7,17.7,7v0.5h0.4V7
					c0.4,0,0.7-0.1,1-0.2c0.5-0.2,0.7-0.5,0.7-1c0-0.3-0.2-0.6-0.5-0.8c-0.2-0.1-0.6-0.2-1.2-0.4v-1c0.2,0,0.4,0.1,0.5,0.2
					c0.1,0.1,0.1,0.2,0.1,0.3h1c0-0.4-0.2-0.7-0.7-0.9c-0.2-0.1-0.6-0.2-1-0.2V2.8h-0.4v0.4c-0.3,0-0.5,0-0.6,0.1
					c-0.2,0-0.4,0.1-0.6,0.3c-0.1,0.1-0.2,0.2-0.3,0.3c-0.1,0.1-0.1,0.3-0.1,0.4c0,0.2,0.1,0.5,0.3,0.6c0.2,0.2,0.5,0.3,1,0.4
					l0.3,0.1v1.1C17.5,6.4,17.3,6.3,17.2,6.2z M18.1,5.4c0.2,0.1,0.4,0.1,0.4,0.2c0.1,0.1,0.2,0.2,0.2,0.4c0,0.2-0.1,0.3-0.2,0.4
					c-0.1,0-0.2,0.1-0.4,0.1L18.1,5.4z M17.3,4.5c-0.2-0.1-0.2-0.2-0.2-0.4c0-0.1,0.1-0.2,0.2-0.3c0.1-0.1,0.3-0.1,0.5-0.1v0.9
					C17.6,4.6,17.4,4.5,17.3,4.5z"/>
			</g>
		</g>
	</g>
</g>
</svg>
